<svg width="12" height="16" viewBox="0 0 12 16" fill="none" xmlns="http://www.w3.org/2000/svg">
<path fill-rule="evenodd" clip-rule="evenodd" d="M2.93896 4.45461L3.35572 4.3073C3.84256 4.13523 4.18896 3.67087 4.18896 3.12817C4.18896 2.43782 3.62932 1.87817 2.93896 1.87817C2.24861 1.87817 1.68896 2.43782 1.68896 3.12817C1.68896 3.67087 2.03537 4.13523 2.52221 4.3073L2.93896 4.45461ZM5.92143 11.801L5.51611 11.9774C5.07171 12.1708 4.76416 12.6129 4.76416 13.1245C4.76416 13.8149 5.3238 14.3745 6.01416 14.3745C6.70452 14.3745 7.26416 13.8149 7.26416 13.1245C7.26416 12.5516 6.87787 12.0663 6.34969 11.9198L5.92143 11.801ZM9.08945 4.45461L9.5062 4.30727C9.993 4.13517 10.3394 3.67084 10.3394 3.12817C10.3394 2.43782 9.77971 1.87817 9.08936 1.87817C8.399 1.87817 7.83936 2.43782 7.83936 3.12817C7.83936 3.6709 8.1858 4.13528 8.67269 4.30733L9.08945 4.45461ZM3.68896 5.25014V6.18431C3.68896 6.61181 3.90743 7.00965 4.26815 7.23907L5.91248 8.28485L7.64539 7.42446C8.07059 7.21335 8.33951 6.77959 8.33951 6.30486V5.2502C7.46554 4.94137 6.83936 4.1079 6.83936 3.12817C6.83936 1.88553 7.84671 0.878174 9.08936 0.878174C10.332 0.878174 11.3394 1.88553 11.3394 3.12817C11.3394 4.10778 10.7133 4.94117 9.83951 5.25009V6.30486C9.83951 7.34927 9.2479 8.30353 8.31245 8.76798L6.61702 9.60976V10.9562C7.56692 11.2197 8.26416 12.0907 8.26416 13.1245C8.26416 14.3672 7.2568 15.3745 6.01416 15.3745C4.77152 15.3745 3.76416 14.3672 3.76416 13.1245C3.76416 12.2008 4.32084 11.407 5.11702 11.0605V9.55662L3.46317 8.50477C2.66958 8.00006 2.18896 7.1248 2.18896 6.18431V5.25014C1.31507 4.94127 0.688965 4.10784 0.688965 3.12817C0.688965 1.88553 1.69632 0.878174 2.93896 0.878174C4.18161 0.878174 5.18896 1.88553 5.18896 3.12817C5.18896 4.10784 4.56286 4.94127 3.68896 5.25014Z" fill="#82828E"/>
</svg>
