<svg width="144" height="141" fill="none" xmlns="http://www.w3.org/2000/svg"><path fill-rule="evenodd" clip-rule="evenodd" d="M65.3 3.7c.3 2-1.1 4-3.2 4.3a63.6 63.6 0 0 0-3.7 125 3.8 3.8 0 0 1-1.6 7.4A71.2 71.2 0 0 1 60.9.5c2.1-.3 4 1.1 4.4 3.2z" fill="#0094FF"/><path fill-rule="evenodd" clip-rule="evenodd" d="M83.9 3.4c.4-2 2.4-3.3 4.5-2.9 28 6 49.7 28.5 54.9 56.8a3.8 3.8 0 1 1-7.5 1.3A63.6 63.6 0 0 0 86.8 8c-2-.5-3.4-2.5-3-4.6z" fill="#FFC700"/><path fill-rule="evenodd" clip-rule="evenodd" d="M140.2 78.5c2.1.4 3.5 2.4 3 4.4a71.2 71.2 0 0 1-59 57.5 3.8 3.8 0 0 1-1.1-7.5 63.6 63.6 0 0 0 52.7-51.3c.4-2.1 2.4-3.5 4.4-3z" fill="#C0D7E9"/></svg>