<svg width="144" height="141" viewBox="0 0 144 141" fill="none" xmlns="http://www.w3.org/2000/svg">
<path fill-rule="evenodd" clip-rule="evenodd" d="M65.2569 3.66747C65.577 5.73915 64.157 7.67809 62.0854 7.9982C31.6254 12.7049 8.30512 39.0432 8.30512 70.8213C8.30512 101.297 29.7541 126.773 58.3828 132.959C60.4318 133.402 61.7339 135.422 61.2912 137.471C60.8484 139.52 58.8285 140.822 56.7795 140.379C24.7299 133.454 0.713867 104.946 0.713867 70.8213C0.713867 35.2411 26.8219 5.76579 60.9261 0.495983C62.9978 0.175865 64.9367 1.59579 65.2569 3.66747Z" fill="#0094FF"/>
<path fill-rule="evenodd" clip-rule="evenodd" d="M83.8721 3.44421C84.3148 1.39523 86.3348 0.093129 88.3837 0.535881C116.322 6.57291 138.148 29.0024 143.295 57.2636C143.671 59.3259 142.303 61.3023 140.241 61.6779C138.179 62.0535 136.202 60.6862 135.827 58.6239C131.231 33.3921 111.728 13.3466 86.7804 7.95588C84.7314 7.51313 83.4293 5.49319 83.8721 3.44421Z" fill="#FFC700"/>
<path fill-rule="evenodd" clip-rule="evenodd" d="M140.241 78.5094C142.303 78.885 143.67 80.8614 143.295 82.9237C137.896 112.567 114.145 135.797 84.2366 140.419C82.1649 140.739 80.226 139.319 79.9059 137.247C79.5858 135.176 81.0057 133.237 83.0774 132.917C109.781 128.791 131.005 108.032 135.826 81.5634C136.202 79.5011 138.178 78.1337 140.241 78.5094Z" fill="#C0D7E9"/>
</svg>
