<svg width="46" height="46" fill="none" xmlns="http://www.w3.org/2000/svg"><path fill="#ADADB9" d="M.23.51h45.03v45.03H.23z"/><path d="M20.16 32.76a.7.7 0 0 1-.22.52c2.42.05 7.18.12 6.9 0-.28-.11-.27-.4-.23-.52v-3.7c0-1.13-.3-1.96-.88-2.49.64-.07 1.22-.17 1.73-.31a6.79 6.79 0 0 0 1.59-.69c.55-.31 1-.7 1.37-1.16a5.5 5.5 0 0 0 .9-1.84c.23-.76.34-1.64.34-2.63 0-1.42-.44-2.62-1.33-3.61a4.82 4.82 0 0 0-.14-3.58c-.31-.1-.77-.04-1.37.2-.6.23-1.12.49-1.55.77l-.65.42a11.62 11.62 0 0 0-6.5 0A10.01 10.01 0 0 0 18 12.99c-.63-.26-1.12-.34-1.45-.24a4.86 4.86 0 0 0-.11 3.58c-.9.99-1.34 2.2-1.34 3.6 0 1 .11 1.87.35 2.63a4.6 4.6 0 0 0 2.25 3.01c.54.32 1.07.55 1.58.69.52.14 1.1.24 1.74.31a2.88 2.88 0 0 0-.83 1.8c-.24.12-.5.21-.76.27-.27.06-.6.09-.97.09s-.74-.13-1.1-.38a3.05 3.05 0 0 1-.94-1.1 2.79 2.79 0 0 0-.82-.9 2.43 2.43 0 0 0-.84-.42l-.34-.06c-.23 0-.4.03-.49.08-.09.05-.12.12-.08.2.03.09.08.17.15.25.07.08.14.15.22.2l.12.1c.25.11.5.34.73.66.25.33.42.63.54.9l.17.4c.14.44.39.8.74 1.08.35.27.73.45 1.13.52a6.9 6.9 0 0 0 2.12.06l.39-.07a162.06 162.06 0 0 0 .01 2.5z" fill="#fff"/></svg>