<svg xmlns="http://www.w3.org/2000/svg" width="46" height="46">
  <path fill="#ADADB9" d="M.23.51h45.03v45.03H.23z"/>
  <path xmlns="http://www.w3.org/2000/svg" d="m10.6 20.2.2.3c-.4 0-.9 0-1-.2.3 0 .5-.1.8 0Zm2.3 1v.3h-.2l.1-.3Zm.8 2.4c-.2.2-.4.3-.5.7-.2-.2-.3-.5-.3-.8l-.2-1.1v-.1h.3l.6 1.2.1.1Zm-.3-3v-.7h.2l-.2.6Zm-.2-3 1.1.2c-.5.5-1 .7-1.2 1.4v-1.6h.1Zm1-1.8.2 1.6c.2.1.3.2.2.5-.3-.2-.7-.4-1.2-.4.1-.6.4-1 .6-1.5l.3-.2Zm1.7-1c-.1.6-.2 1.9-.5 2.4-.6-.3-.6-1.7.1-2.3h.4Zm-.6 4.2.5.6c-.2.7-.6 1.2-.8 2h-.3c-.2-.9.4-2.2.6-2.7h.5l.1.5-.6-.4Zm1.5-4.2.1 1.5-1 .5.5-2h.4Zm.3-1h.1v.3h-.3l.2-.2Zm.1 3.1-1 .6c0-.4.5-.9 1-1v.4Zm.7-2.3-.2 1-.2.1v.1c-.3-.2-.3-.8-.3-1.3h.7Zm.6-.8-.2.3h-.4v-.3h.6Zm.6-1.3-.2.6h-1c.4-.3.7-.5 1.2-.6Zm-.5 1.7h.1l.1.3h-.3l.1-.3Zm.9 1c-.4.2-1 .1-1.3.3v-.4l.2-.3 1 .4Zm-.9.6h-.4v-.1l1.3-.2-.5.3h-.4Zm1.2 0c-.4.1-.7.4-1 .7 0-.3.5-.8.8-1l.2.3Zm.6-4-.4.3h-.5l1-.3Zm-.5 1-.1-.2c.3-.2 1-.1 1.3 0l-1.2.2Zm2.9-1c.5 0 1 .2 1.4.4v.1l-.5.2-1-.2-2-.3c.7-.2 1.4-.2 2-.2Zm2.1-.2-.1.2-.9-.3h1v.1Zm1.7 1.3.3-.1.2.2c0 .3-.3.5-.5.8h-.1c-.4-.7-1-1.5-1.9-1.8l.4-.2 1.7.8-.1.3Zm.8 1.6-.1-.1h-.2l.3-.3v.4Zm.3 3.7c.4.4.5 1 .3 1.7l-.5-1.3.1-.3v-.1Zm0-3-.2.3v-.2c.1-.2 0-.1.2-.1Zm.3 0 1 .3v.2l-.2.1-1-.4.2-.2Zm2 1.3-.5-.4-.1-.1c.2-.2.2-.2.4-.1l.2.6Zm.3-.1v.1c-.2 0-.2-.2-.3-.3l.3.1Zm-.2-1 .2-.2-.2.2Zm1.5 1.7h-.1c-.3 0-.6-.3-.9-.4l-.3-.4c.5-.3.5 0 1 .3l.3.5Zm.3.3-.3-.1.2-.1.1.2Zm-.3.5c0 .3 0 .2.3.2l-.4.4-.5-.9c.3-.1.4 0 .8 0l.1.3h-.3Zm0 .7.7-.4-.5.7-.2-.3Zm1.3 1.2-.6.3h.3l-1 .4v-1.2l.6-.7h.2l.5 1.2Zm-.3-1.8c1.7-.5 1.4.5.6 1.2l-.6-1.2Zm1.6.2c-.7 3.2-.8 3.3-3.1 4.7l-.1-.2v-.3c1.6-.5 2.4-1.3 2.3-3.1l.8-1v-.1Zm0 0v-.3h.2l-.1.3Zm-3.9 3v-.6h.3v1l-.3-.3Zm-1.2 3 .4-1v-.3h.8v.2c0 .4 0 .7-.2 1.2h-1Zm.3 1.4v-.7h.6l-.3.7h-.3Zm-.3-2.2.3-.2v.2l-.2.5-.1-.5Zm-.5 1.7-.2-.2.2.2Zm-.8-.4.6-.1v.3h-.6v-.2Zm.4 1.2.2.6-.6.4c-.1-.2 0-.9.4-1Zm-.7-2v-.3.2Zm1 0v-.3h.1l.1.3h-.2Zm2.2-4.4c0-.2.1-.3.2-.3v.2l-.1.1h-.1Zm0 .9-.3.1V19l.3 1.5Zm-.6 2.2c.2-.1.2 0 .2.3h-.6v-.1l.4-.2Zm-.3-1h.1l.1.2h-.3v-.1Zm-.1 1-.3.3H29l.1-.3h.5Zm-1.2-.2c-.1-.1 0-.1 0-.2v.2Zm1-1.5-1-.6v-2.4c.8.3 1.6 1.7 1 3Zm-.8 0c.3.1.3.3.7.4l-.2.6h-.4v-1Zm.1 2.2c-.1-.1 0-.1 0-.2v.2Zm2.2-3.3.3-.3V21c-.2-.2-.3-.7-.3-1Zm0 1 .2-.3-.1.4H31Zm1.8-1h.1c0 1.4-.8 1.6-1.8 2H31l.6-1.3 1.2-.6ZM31 17.5l-.1.1-.2-.3.3.2Zm-.3.5.3.3-.3-.3Zm.3.9-.5.4-.9-1.4-1.2-1 .3-.3c.6.3 1.6.8 1.8 1.4 0 .2-.2.4 0 .5.2.2.4 0 .5.4Zm-2.7 2v.1l.1 1h-.1c-.2-.1-.3-.7-.1-.9V21Zm-.7 1.8.2.2-.2.1h-.1v-.3Zm-.3 5.4-.2-.5.6-.2-.4.7Zm-.5-1.4c0-.2.1-.2.2-.3h.1l-.2.3Zm.2.3-.2-.1.3-.2v.3H27Zm-.4 1.6-.1-.1h.1l.5-.4v.4l-.3.2-.2-.1Zm0 3.8-1.8-.2-.7-1.5-.2-.1c1.2-.2 2-.8 3-1.2.2.3 1 2 .3 2.6-.1.3-.3.3-.5.4Zm-3.3-1.6h.3c.5.3.8.8 1 1.3l-1.3-.4v-1Zm-.9-1.3L24 29l2.2.2v.1l-2.1 1c-.9 0-1-.3-1.7-.5l.1-.4Zm0 1.6v-.3h.5v.6l-.6-.3Zm-.7.5.2-.1c.3-.2.5 0 .8.1l-.2.2-.8-.2Zm.6-.5-.2-.1v-.3h.2v.4Zm-1 0 .4.3v.4l-.3-.7Zm-.8-1.3h1.2l-.4.3-.9-.1.2-.2Zm-.7-16.9c.6-.5 2-.4 2.4 0h.1c-.5.5-1.2.5-1.7 1-.4-.2-.7-.4-.8-1Zm3.3 1 .2.3h-.7l-1.4.4-.1-.1c.6-.4 1.2-.6 1.9-.6Zm1.2-1.7c.4.5 1 .7 1.2 1.4-.8-.4-2.2-.4-2.8-1.1a2 2 0 0 0 1.6-.3Zm.3 2.4 1.2.2-.9.8-.3-1Zm1.5 1.4H26h.3Zm-.2-.8.3-.3v.4H25.9Zm.5 11.2h-.1l-.1-.1V26h.3v.3Zm-.2.6.1-.2.2.2h-.3Zm-.1 1-.2-.2h.6l-.3.2h-.1Zm0 1h-.6l.5-.3.2.4Zm-.4-.9.2.1-.5.2h-.5l.7-.3h.1ZM24 13.5c.4 0 .8 0 1 .3-.3 0-.7 0-.8-.2l-.2-.1Zm.4 1.3.2.7c-.3-.1-.2-.4-.2-.7Zm.3 2.1c.6-.2.8 0 .5.3-.3 0-.4-.2-.5-.3Zm.8 8.7h.1l-.3.3.2-.3Zm-.2-8.2.3-.2v.3h-.3v-.1Zm1 9-.8.2h-.2c.3 0 .5-.2.7-.3h.2Zm-.6-.8v-.2l.2-.1v.3h-.2Zm-2 2.3.4-.3 1.2.1v.1l-.8.5c-.3 0-.5-.2-.7-.4Zm-.6 0 .6.4-1-.2.4-.1Zm0 .7v.1l-.2.1h-.1c.1-.2 0-.2.3-.2ZM21.5 15h-.1c.3-.2.8-.3 1.3-.4h1l.2 1-1.2-.1h-1.1l-.1-.5Zm.4 13.6h.1v.4h-1l.4-.6.5.2Zm-1-1.2c-.4 0-1-.3-1.1-.7l1.3.3-.2.4Zm.4 0h-.2v-.1l.2-.3v.4Zm-.9-12.4h.4l.3.2h-.3l-.4-.2Zm0 14.5v.2h-.1l-.2-.3h.3v.1Zm.2-1.4.7.1v.1l-.5.8-.7-.1.5-1Zm5.6-10.6.1-.2h.5v.1l-.4.2-.2-.1Zm.8-1-.2-.2c.3 0 .1 0 .2.1Zm0 1.5-.2-.2.3-.2-.1.4Zm-.2 2.3.5.1c.2 0 .1.1.2.2-.3 0-.6-.1-.7-.3Zm0-1h.1l.2.3h-.3v-.2Zm-6.4 11.2-.4.2h-.2l.1-.2h.5Zm-1-17c.3.3.4.6.4 1.4-.2-.2-.3-.7-.3-1.3Zm.2-.6v.2h-.1l.1-.2Zm-.1.3v.3H19l.3-.3Zm0 19.6.1-1.7 1.1-.4-1.1 2h-.1Zm0-4.6.2-.1c.2.1 0 .4-.1.6-.1 0-.2-.2-.1-.4V28Zm-1-.2.4-.6.6.3-.6 1c-.2-.1-.3-.4-.4-.7Zm0 2.6.6-.5h.3V30.6h-.9Zm-1-.4.7-.5.6.1v.1l-.5.5a1 1 0 0 1-.7-.2Zm0-.7.2-.1h.1l-.7.3H17l.5-.2Zm-1-.3.3-.5c.3 0 .4.2.7.3v.1l-.4.3h-.3l-.2-.2Zm-.6 1.4.5-.9c.3 0 .4 0 .5.2l-.1.1v.3h.4c0 .3 0 .3-.2.4l-1-.1Zm-.5-1.2.8.3-.5.7-.7-.2.4-.8Zm-3.1-1 .4.4c-.9.8.6 3.3 2.2 1.7l.7.3c-.3.5-.7.7-1.2 1-1.2 0-2.8-2-2.1-3.3Zm1 .4v.3c0-.1 0-.2-.2-.2v-.2l.3.1Zm1.7 1.5-.6.4c-1.2.2-1.6-.7-1.7-1.7l.3-.3c.6.5 1.2 1.2 2 1.5Zm-1.1-5-.2-.2.2-.9.3-.2.1.3-.4 1Zm-.2.4.5-1.3h.1c.2.4.6.6.7 1.1l-.8.9-.5-.7Zm1 1 .6-.7.3.7h-1Zm1.6-6.8-1 1.8c0-.6.5-1.5.7-2h.1l.2.2Zm0-1.9a3 3 0 0 0 1.1-.7l.1.4-.4.6-.8-.3Zm1.6 0-.2.3h-.2l.3-.3Zm-.3-1.4.3.4-.1.3c-.3-.2-.3-.4-.2-.7Zm0 9.8.2.2-.3-.1v-.1Zm0 .3.3.2-.7.5c-.2-.1-.2-.3-.3-.5l.6-.2Zm-1-.7.3.2H16.6V26Zm0-6.7c.4.1.2 0 .3.3-.2 0-.2-.1-.3-.3Zm0 6V25c.2.1.2.2.3.4h-.3Zm.6-4.2c-.1.2 0 .1-.3.2l.1-.3.2.1Zm0-1.3-.2.2c-.2-.1 0-.1 0-.3h.2Zm0-.6-.3-.2c.2 0 .2 0 .3.2Zm-.6 6.2.3.2c-.2 0-.2 0-.3-.2Zm1 0h-.2l-.1-.3.2.2Zm-.2-6.3-.2-.1.2.1Zm0 5.6-.2-.4V24h.1l.2.7h-.1Zm-.9 3.9v.5a.9.9 0 0 1-.6-.7l.6.2Zm-.9.5.3.3-.3-.3Zm.6-3v.3l-.3-.4h.3Zm-.3 1.6-.3-.7.7.7h-.4Zm.2-6-.1.3v-.3h.1Zm-.2 2.9h-.2v-.2h.2v.2Zm-2.2 2.8c.6.4 1.7.8 2 1.7-.8-.4-1.5-1-2-1.7Zm1.7-.3.2.3-.6-.4h.4Zm2.3 1-.5-.6.9-.8v1l-.4.4Zm.5.5v-.2h.2l.1.3h-.3Zm.4-1.2-.1-.4h.2v.4Zm-.4-11.4h.3l-.2.3-.1-.3ZM15 23l-.3-.7c.3.1.3.4.3.7Zm-.8.3c-.3-.2-.5-.5-.5-1 .6.2.5.4.6 1h-.1Zm-.4-1.7c-.4-.4.2-2 .5-2.4.1-.2.3-.2.5-.2h.2c-.4.7-.7 1.7-.8 2.7l-.4-.1Zm-.6 5.4.2.4-.1.4-.1.1.4-.3c.4.7 1 1.4 1.7 1.8l-.4.7-1.1-.8c-.2-.3 0-.5-.2-.7H13l-.6-.5c.2-.4.3-.7.7-1h.1Zm-1-3.7.1-1 .2 1 .1.6.8 2.1c-.6-.3-1-1.1-1-2.2V25c-.3-.3-.3-1-.3-1.7Zm-.6.4-.1-.4v-.7l.3-.3-.2 1v.4Zm22.3 3.3-.7-.2h.6v.2Zm-17 5.5h.2l-.2.3v-.3ZM12.1 21h-.3c-.3-.2-.6-.6-.7-1 .6 0 .7.3 1 .6v.4Zm0 0c0-.8-.5-1.2-1.2-1.2 0-1 1-1.5 1.7-1.9h.2c-.2 1.3 0 2.4-.5 3.5-.4.8-1.6.8-1.5 2v.2c.2 1.6 2 2 2.2 3.4-2.6 1.4.5 7.2 2.6 3.8.4 0 .7.2 1.1 0 .3 0 .3-.2.4-.4l.7.4c-.6.6-1.1 1.4-1.8 1.9v-.2h-.2l-.1.5c.4.4 1.6-1.2 2-1.5-.2.7-.7 1.1-1 1.8v.1c.6-.4 1.3-1.5 1.4-2.4l.8.2c-1 1.4-3.6 4.5-5 5.3l.7-1.7-.2-.1c-.3.7-.9 1.2-1 2l.3.3c1.6-.3 4.3-4.5 5.6-5.7-.3 3.7-2.2 4.3-3.9 6.5 1.5-.8 2.4-2.8 3.7-3.9-.1 1.6-.5 5-1.4 5.6h.2c1-.6 1-3.3 1.3-4.6l.2-1.4 1.4-2 .1-.2c.2.6.9 1.1 1.7 1l.5-.3 1.4.6c.2 2 .1 3.2-1.1 4.8 1.3-.7 1.7-3.3 1.3-4.7 3 .3 2.9-.7 2.3-3h.6c-.1-.2-.4 0-.6-.2l-.1-.1c.7-.9 2.4 0 2 1.4.5-1.2-.6-2.2-1.6-1.8.4-.6 1-1 1.3-1.7V27l2.6 2.7h.1l.1-.2-2.3-2.9.2-.1.4-.2c1.2.1 2.8 1.2 4.1.9.2-.3.2-.4.1-.6 1.4 0 4-.5 4.8-1.2a20 20 0 0 1-6.7.4l-1.7-.2h-.1l.5-1c1.4 0 5.2 0 6-1l-.2-.2H36l-.1.2h.5a15 15 0 0 1-5.4.6v-1.1a4.4 4.4 0 0 0 3-3.1c.3-1 .2-2.1.7-2.7.4 0 .5.2.7.3-.1-.2-.3-.3-.6-.4l-.4.3c-.5.2-1-.2-1.6.1-.6-.5-1-1.3-1.8-1.6v-.2l1-1-1 1-.7-.3v-.1c.7-.6 1.4-.8 2.2-.6l.1.2v.1H32h.5V15c-.1-.1-.2-.3-.6-.3l.2-.2c-.4.2-1.2.3-1.6.6l.9-.8.1-.2-1.7 1.1c-.4 0-.8-.2-1-.4h-.1l2-1.4v-.2l-2.3 1.4-.8-.2v-.7l5.5-4.4h.1v-.2c-.3 0-1.1.6-1.4.8-1.2.8-2.3 1.8-3.5 2.5.5-.6 1.4-1.2 1.6-2.2h-.3l-.3.3.4-.2c-.3.9-1.5 2.3-2.1 2.8l-.1-.2c.4-.8.8-1.8.6-2.8L28 10h-.4l.6.3c.1 1-.3 1.6-.6 2.4-.3-.3-.2-.4-.6-.5v-.2l.2-.3.2-.1v.2l.1-.2-.2-.1-.4.5c-.5-.3-1-.6-1.5-.7.3-.7 1.3-1.8.8-2.7-.6-1-2.7.2-3.5 1l-.2.3.2-.1c.8-.6 2.8-2 3.3-1 .4.7-.5 2-.7 2.4l-2.6-.1a9 9 0 0 0-2.8.4l-2.4 1.4-1-.9-1.8-1V11.2l2.3 2-.4.3c-1-.8-1.6-1.3-3-1.7h-.3c.8.7 1.7 1.2 2.5 1.8l.2.2c-.6.3-.8.8-1.4 1.2-.8-.4-1.5-.8-2.5-1.1v.2l1.8 1.2-.2.2-.7 1.8c-1 .8-2 .8-2.3 2.3-.3 0-.5.1-.7.3v.2c.1.3 1.6 1 2 1l.2-.2ZM22.8 10h.1-.2c.1-.3.5-.4 1-.3l-.1.2h-.8Zm.6.3h.3c.2-.4.3-.7.2-1-.4 0-.6 0-1 .2l-.2.4v.1c.2.2.3.2.6.2l-.2.1h.3Zm9.3 3-.4.2h.5l-.4.9c.2-.3.4-.5.5-.9l-.2-.1Zm-2.4 13.2c0-.2-.2-.3-.3-.3l.3.3Zm-1.2 4-.4.2h.3v-.1Zm1.2-4c.4.4.6 1.1.5 1.7.4-.8 0-1.4-.5-1.7Z" style="fill:#fff;transform-origin:23px 23px"/>
</svg>