<?xml version="1.0" encoding="utf-8"?>
<svg viewBox="0 0 46 46" width="46" height="46" xmlns="http://www.w3.org/2000/svg">
  <path fill="#ADADB9" d="M.23.51h45.03v45.03H.23z"/>
  <path xmlns="http://www.w3.org/2000/svg" d="M 14.112 11.879 L 14.142 19.593 C 15.081 18.19 16.212 17.479 17.526 17.474 C 18.203 17.472 18.809 17.629 19.355 17.946 C 19.902 18.262 20.311 18.665 20.587 19.157 C 20.866 19.655 21.056 20.198 21.159 20.799 C 21.262 21.398 21.316 22.328 21.321 23.589 L 21.352 31.836 L 18.414 31.847 L 18.386 24.421 C 18.38 22.948 18.324 22.013 18.21 21.618 C 18.097 21.219 17.9 20.906 17.618 20.676 C 17.333 20.44 16.981 20.324 16.555 20.326 C 16.069 20.328 15.632 20.48 15.254 20.783 C 14.868 21.086 14.59 21.54 14.417 22.144 C 14.239 22.75 14.154 23.642 14.162 24.824 L 14.186 31.866 L 11.252 31.877 L 11.175 11.891 L 14.112 11.88" fill="#fff" style="transform-origin: 22.912px 22.912px;"/>
  <path xmlns="http://www.w3.org/2000/svg" d="M 27.224 11.818 L 27.254 19.532 C 28.193 18.129 29.324 17.418 30.638 17.413 C 31.315 17.411 31.921 17.568 32.467 17.885 C 33.014 18.201 33.423 18.604 33.699 19.096 C 33.978 19.594 34.168 20.137 34.271 20.738 C 34.374 21.337 34.428 22.267 34.433 23.528 L 34.464 31.775 L 31.526 31.786 L 31.498 24.36 C 31.492 22.887 31.436 21.952 31.322 21.557 C 31.209 21.158 31.012 20.845 30.73 20.615 C 30.445 20.379 30.093 20.263 29.667 20.265 C 29.181 20.267 28.744 20.419 28.366 20.722 C 27.98 21.025 27.702 21.479 27.529 22.083 C 27.351 22.689 27.266 23.581 27.274 24.763 L 27.298 31.805 L 24.364 31.816 L 24.287 11.83 L 27.224 11.819" fill="#fff" style="transform-origin: 22.912px 22.912px;"/>
</svg>