<svg width="46" height="46" viewBox="0 0 46 46" fill="none" xmlns="http://www.w3.org/2000/svg">
<rect x="0.174316" y="0.509155" width="45.0321" height="45.0321" fill="#ADADB9"/>
<path d="M33.0357 25.1547V32.4399H28.601V25.6426C28.601 23.935 27.9596 22.7697 26.3544 22.7697C25.129 22.7697 24.3998 23.5551 24.079 24.3148C23.962 24.5863 23.9319 24.9644 23.9319 25.3445V32.4399H19.4957C19.4957 32.4399 19.5554 20.9275 19.4957 19.7347H23.9314V21.5356C23.9224 21.5491 23.9108 21.5636 23.9023 21.5767H23.9314V21.5356C24.5208 20.6711 25.5733 19.4362 27.9291 19.4362C30.8477 19.4362 33.0357 21.2521 33.0357 25.1547ZM14.8552 13.6102C13.3376 13.6102 12.345 14.5582 12.345 15.8049C12.345 17.0244 13.3089 18.0012 14.7964 18.0012H14.826C16.373 18.0012 17.3351 17.0246 17.3351 15.8049C17.3059 14.5582 16.373 13.6102 14.8552 13.6102ZM12.6084 32.4399H17.043V19.7347H12.6084V32.4399Z" fill="white"/>
</svg>
